# xmcd
#
# Track frame offsets: 
#        150
#        27961
#        48266
#        71216
#        97241
#        118560
#        145073
#        174518
#        192687
#        209990
#        225815
#        247096
#        264211
#        281761
#        300519
#        320195
#
# Disc length: 4639 seconds
#
# Revision: 10
# Processed by: cddbd v1.5.2PL0 Copyright (c) Steve Scherf et al.
# Submitted via: ExactAudioCopy v1.3
#
DISCID=f6121d10
DTITLE=Gerry Rafferty - Baker Street
DYEAR=1999
DGENRE=Pop
TTITLE0=Baker Street
TTITLE1=Right Down The Line
TTITLE2=City To City
TTITLE3=Waiting For The Day
TTITLE4=Get It Right Next Time
TTITLE5=Take The Money And Run
TTITLE6=Days Gone Down (Still Got The Light In Your Eyes)
TTITLE7=Why Don't You Talk To Me
TTITLE8=The Royal Mile
TTITLE9=Wastin' Away
TTITLE10=Bring It All Home
TTITLE11=Don't Close The Door
TTITLE12=Sleepwalking
TTITLE13=Change Of Heart
TTITLE14=On The Way
TTITLE15=Night Owl
EXTD=YEAR: 1999
EXTT0=
EXTT1=
EXTT2=
EXTT3=
EXTT4=
EXTT5=
EXTT6=
EXTT7=
EXTT8=
EXTT9=
EXTT10=
EXTT11=
EXTT12=
EXTT13=
EXTT14=
EXTT15=
PLAYORDER=
